PathFileType	4	(X/Y/Z)	T:\Spectrum_Optical_Capture\Spectrum_Demo_10_05_01_TRUECOMBAT\07_Smooth_Trc\TC_Jog_1.trc
DataRate	CameraRate	NumFrames	NumMarkers	Units	OrigDataRate	OrigDataStartFrame	OrigNumFrames
60.0	60.0	       4	46	mm	60.0	442	       504
Frame#	Time	HeadTop			ForeHead			LFrontHead			RFrontHead			TopSpine			Sternum			Scapula			LFShoulder			LShoulder			LBicep			LOuterElbow			LHand			LWristPinky			LWristThumb			RFShoulder			RShoulder			RBicep			ROuterElbow			RHand			RWristPinky			RWristThumb			MiddleBack			LowerBack			Root			Pelvis			LBackWaist			RBackWaist			LFrontWaist			RFrontWaist			Bellymarker			LThigh			LOuterKnee			LAnkle			LHeel			LOuterMeta			LToe			RThigh			ROuterKnee			RAnkle			RHeel			ROuterMeta			RToe			Floor1			Floor2			Floor3			Floor4			
		X1	Y1	Z1	X2	Y2	Z2	X3	Y3	Z3	X4	Y4	Z4	X5	Y5	Z5	X6	Y6	Z6	X7	Y7	Z7	X8	Y8	Z8	X9	Y9	Z9	X10	Y10	Z10	X11	Y11	Z11	X12	Y12	Z12	X13	Y13	Z13	X14	Y14	Z14	X15	Y15	Z15	X16	Y16	Z16	X17	Y17	Z17	X18	Y18	Z18	X19	Y19	Z19	X20	Y20	Z20	X21	Y21	Z21	X22	Y22	Z22	X23	Y23	Z23	X24	Y24	Z24	X25	Y25	Z25	X26	Y26	Z26	X27	Y27	Z27	X28	Y28	Z28	X29	Y29	Z29	X30	Y30	Z30	X31	Y31	Z31	X32	Y32	Z32	X33	Y33	Z33	X34	Y34	Z34	X35	Y35	Z35	X36	Y36	Z36	X37	Y37	Z37	X38	Y38	Z38	X39	Y39	Z39	X40	Y40	Z40	X41	Y41	Z41	X42	Y42	Z42	X43	Y43	Z43	X44	Y44	Z44	X45	Y45	Z45	X46	Y46	Z46	

442	7.350	3353.44849	1716.75635	3991.25049	3429.71143	1598.95081	4083.90942	3457.29736	1591.81897	3968.78027	3322.05981	1596.65613	4097.11719	3245.03687	1409.12500	3881.53784	3425.34766	1224.98914	4073.61328	3141.99146	1273.17639	3948.90259	3448.95825	1337.04883	3987.27759	3436.99414	1422.05688	3828.38794	3561.40845	1313.81653	3717.90332	3549.69092	1205.43860	3648.59741	3768.27295	1171.15295	3563.74487	3798.63379	1104.59229	3490.86914	3896.93066	1115.59937	3521.10156	3334.63306	1332.98303	4094.47681	3189.28076	1418.11768	4069.25708	3058.15527	1316.42529	4114.89063	2986.51245	1200.67493	4178.17090	2907.15088	1152.51392	4394.97217	2837.26196	1087.99695	4423.54541	2849.73169	1088.61792	4519.79248	3234.73657	1318.57813	3868.43213	3244.40112	1190.40869	3873.15918	3259.77026	1078.90332	3883.38428	3392.37427	1114.94373	3812.64038	3388.94214	996.40051	3817.63330	3181.26611	991.65082	4003.06812	3499.34546	1009.14679	3924.58032	3245.41626	1000.17841	4129.57520	3442.03320	1025.90869	4099.88672	3489.51758	735.76660	3836.42163	3495.33057	565.54474	3855.39209	3462.59131	168.03423	3818.05103	3364.27686	105.36131	3822.01538	3514.06226	67.25796	3837.09033	3567.26343	49.03338	3952.74414	3233.94482	730.85944	4141.49023	3210.92529	571.03711	4078.20850	3170.22705	178.63332	4004.72656	3189.53076	104.44899	3901.98315	3175.32422	52.29840	4052.38110	3281.54590	46.21940	4115.20508	4200.71436	32.69809	-4240.96582	-3732.65356	-12.99334	-4190.88818	-3783.62378	-15.67435	4949.62744	4162.92334	22.10623	4905.76514																																																																																																																																								3436.73145	81.47774	3831.12866	
443	7.367	3355.41211	1716.07605	3992.04614	3431.76294	1597.56519	4084.81323	3459.08032	1590.96973	3969.35327	3324.23853	1595.61035	4098.08740	3246.04932	1408.14978	3882.54956	3426.65601	1224.54675	4074.15747	3143.91675	1272.86829	3950.20483	3450.25464	1336.40894	3987.26343	3436.35010	1423.47754	3829.81494	3562.74927	1324.01184	3716.17456	3556.01904	1217.40564	3644.17798	3775.55078	1197.18701	3556.89014	3808.31641	1134.86731	3481.80640	3905.98022	1151.55823	3511.07227	3336.25439	1332.92285	4095.08984	3192.03564	1419.67810	4068.27832	3058.68530	1323.53149	4115.66943	2983.80078	1213.54871	4184.13037	2901.90894	1176.68787	4402.26416	2829.99463	1115.71692	4433.61670	2842.28589	1120.22998	4529.80078	3236.14893	1317.69849	3869.57788	3245.03101	1189.91455	3873.97095	3261.15918	1077.93433	3884.86963	3393.35938	1114.40454	3813.14868	3390.43066	995.80743	3818.88770	3182.49585	990.72827	4004.99170	3500.84302	1008.49023	3925.79712	3246.96851	999.49713	4131.15186	3443.63818	1025.63818	4101.12891	3489.35474	735.40631	3836.34668	3493.08496	564.59357	3854.72778	3461.23486	167.11850	3817.00952	3363.45947	103.63483	3821.71606	3513.40869	66.90220	3836.56079	3567.20483	49.16255	3952.48853	3234.51953	729.52588	4142.08057	3210.47144	570.62341	4077.08960	3169.78857	178.04274	4003.82813	3189.41626	103.15367	3901.41797	3174.75854	51.65488	4051.96729	3281.66724	46.01619	4115.27637	4200.78467	32.68129	-4240.93652	-3732.58496	-12.97720	-4190.90723	-3783.60840	-15.63801	4949.62598	4162.91162	22.13844	4906.04932	
444	7.383	3357.49243	1714.84668	3992.55103	3433.75903	1595.76099	4085.52148	3460.94946	1589.80835	3969.98120	3325.97754	1594.11658	4098.45264	3247.11353	1406.66296	3883.57813	3427.79761	1223.67700	4074.61328	3145.61938	1271.99780	3951.41919	3451.50806	1335.36389	3987.27344	3435.22803	1424.43665	3831.05078	3563.57324	1333.23779	3714.76904	3561.65894	1228.38049	3640.59229	3781.74658	1222.00037	3551.31763	3816.70239	1163.61597	3474.19263	3913.38525	1185.87976	3502.73706	3337.81030	1332.37415	4095.53296	3194.67505	1420.67676	4067.01221	3059.23730	1329.48193	4116.04199	2981.47095	1225.24377	4189.43066	2897.81299	1199.69604	4408.51025	2823.96753	1142.32886	4442.08057	2836.38403	1150.60779	4538.24658	3237.58716	1316.07886	3870.43433	3245.57520	1189.10095	3874.41748	3262.29443	1076.54211	3886.12939	3394.28662	1113.49585	3813.53345	3391.63159	994.82544	3820.12646	3183.60913	989.26129	4006.79761	3502.22534	1007.25989	3926.73608	3248.40112	998.50665	4132.38672	3445.05103	1024.89844	4102.27051	3488.81787	734.66449	3835.70752	3491.03149	563.57916	3853.82861	3459.79614	165.60214	3815.30933	3362.59229	101.50677	3821.08301	3513.03906	66.20428	3835.77930	3567.17480	49.25653	3951.94458	3234.83179	727.65735	4142.49414	3209.93018	569.77930	4075.73828	3169.42896	177.22597	4002.76953	3189.37915	101.23222	3900.68481	3174.13501	50.81871	4051.35327	3281.88379	45.74861	4115.04443	4200.76025	32.61200	-4240.94385	-3732.48438	-12.95585	-4190.90527	-3783.59692	-15.60550	4949.66162	4162.86768	22.18507	4906.38037	
445	7.400	3359.68823	1713.11926	3992.88721	3435.66431	1593.73596	4086.06104	3462.88623	1588.35535	3970.69214	3327.16650	1592.30725	4098.00342	3248.18140	1404.73889	3884.30127	3428.82153	1222.50549	4074.94946	3146.93726	1270.69092	3952.52002	3452.67261	1334.08203	3987.32007	3433.62305	1424.97949	3831.89893	3563.88501	1341.59277	3713.73462	3566.73511	1238.33350	3637.83740	3786.72607	1245.40430	3546.87842	3823.92480	1190.45691	3467.98193	3919.25732	1218.04114	3496.05078	3339.23169	1331.45947	4095.74121	3197.15967	1421.08911	4065.60767	3059.82886	1334.41077	4116.22070	2979.65479	1235.62061	4193.99219	2894.90234	1221.42737	4413.73438	2819.08423	1167.80957	4448.88330	2831.81177	1179.50696	4545.20410	3238.99194	1313.82349	3870.97681	3246.27637	1187.86279	3874.64478	3263.21118	1074.92871	3887.12842	3395.27661	1112.24792	3814.05688	3392.63403	993.55646	3821.39160	3184.71777	987.52460	4008.31104	3503.50635	1005.59247	3926.92236	3249.74414	997.35156	4133.39209	3446.27124	1023.78601	4103.25684	3488.14429	733.54486	3834.57715	3489.22266	562.58313	3852.61084	3458.34888	163.70007	3813.15723	3361.78638	99.21727	3820.21118	3512.89038	65.21211	3834.80493	3567.13965	49.26955	3951.12744	3234.94434	725.65112	4142.61182	3209.46411	568.60449	4074.25464	3169.13379	176.21872	4001.64160	3189.46997	98.85942	3899.88965	3173.47559	50.03259	4050.53442	3281.89697	45.53158	4114.72412	4200.70020	32.54037	-4240.98584	-3732.37646	-12.95040	-4190.87402	-3783.58447	-15.58190	4949.72510	4162.81836	22.22140	4906.58301	
